<?xml version="1.0" encoding="utf-8"?>
<!-- Generator: Adobe Illustrator 16.0.0, SVG Export Plug-In . SVG Version: 6.00 Build 0)  -->
<!DOCTYPE svg PUBLIC "-//W3C//DTD SVG 1.1//EN" "http://www.w3.org/Graphics/SVG/1.1/DTD/svg11.dtd">
<svg version="1.1" id="Layer_1" xmlns="http://www.w3.org/2000/svg" xmlns:xlink="http://www.w3.org/1999/xlink" x="0px" y="0px"
	 width="627px" height="232.085px" viewBox="0 0 627 232.085" enable-background="new 0 0 627 232.085" xml:space="preserve">
<path fill="#FFFFFF" d="M59.677,5.948c-29.184,0-52.841,23.658-52.841,52.841c0,29.184,23.658,52.84,52.841,52.84
	c29.183,0,52.841-23.656,52.841-52.84C112.518,29.605,88.86,5.948,59.677,5.948z M84.657,66.567H67.454V83.77
	c0,4.225-3.55,7.686-7.777,7.686c-4.229,0-7.778-3.461-7.778-7.686V66.567H34.697c-4.227,0-7.686-3.551-7.686-7.778
	c0-4.228,3.459-7.778,7.686-7.778h17.202V33.809c0-4.226,3.549-7.686,7.778-7.686c4.228,0,7.777,3.46,7.777,7.686v17.202h17.203
	c4.226,0,7.686,3.55,7.686,7.778C92.342,63.016,88.883,66.567,84.657,66.567z"/>
<path fill="#42BCEA" d="M59.677,118.947c-29.184,0-52.841,23.658-52.841,52.842s23.658,52.84,52.841,52.84
	c29.183,0,52.841-23.656,52.841-52.84S88.86,118.947,59.677,118.947z M84.657,179.566H67.454v17.203c0,4.225-3.55,7.686-7.777,7.686
	c-4.229,0-7.778-3.461-7.778-7.686v-17.203H34.697c-4.227,0-7.686-3.551-7.686-7.777c0-4.228,3.459-7.777,7.686-7.777h17.202
	v-17.203c0-4.226,3.549-7.686,7.778-7.686c4.228,0,7.777,3.46,7.777,7.686v17.203h17.203c4.226,0,7.686,3.55,7.686,7.777
	C92.342,176.016,88.883,179.566,84.657,179.566z"/>
<path fill="#FFFFFF" d="M313.136,5.948c-29.184,0-52.842,23.658-52.842,52.841c0,29.184,23.658,52.84,52.842,52.84
	c29.183,0,52.841-23.656,52.841-52.84C365.977,29.605,342.318,5.948,313.136,5.948z M317.342,84.775l-4.206,4.207l-4.207-4.207
	c-15.626-13.824-25.845-23.138-25.845-34.558c0-9.316,7.212-16.529,16.527-16.529c5.109,0,10.219,2.404,13.524,6.311
	c3.305-3.907,8.414-6.311,13.523-6.311c9.314,0,16.527,7.213,16.527,16.529C343.187,61.637,332.97,70.952,317.342,84.775z"/>
<g>
	<path fill="#FFFFFF" d="M185.315,41.369c-8.693,0.543-15.739,7.59-16.282,16.282c-0.662,10.544,8.031,19.22,18.558,18.558
		c8.676-0.561,15.722-7.607,16.282-16.283C204.535,49.382,195.842,40.707,185.315,41.369z M195.842,59.383
		c-0.306,4.703-4.108,8.489-8.778,8.777c-5.671,0.356-10.357-4.313-9.983-9.983c0.289-4.686,4.092-8.472,8.778-8.777
		C191.529,49.043,196.215,53.712,195.842,59.383z"/>
	<path fill="#FFFFFF" d="M186.453,5.948c-29.184,0-52.841,23.658-52.841,52.841c0,29.184,23.658,52.84,52.841,52.84
		c29.183,0,52.841-23.656,52.841-52.84C239.294,29.605,215.636,5.948,186.453,5.948z M186.453,83.527
		c-15.858,0-30.239-8.676-40.85-22.786c-0.866-1.155-0.866-2.768,0-3.923c10.611-14.092,24.992-22.768,40.85-22.768
		s30.239,8.676,40.851,22.785c0.866,1.154,0.866,2.768,0,3.922C216.691,74.852,202.311,83.527,186.453,83.527z"/>
</g>
<path fill="#FFFFFF" d="M439.313,5.948c-29.184,0-52.841,23.658-52.841,52.841c0,29.184,23.657,52.84,52.841,52.84
	s52.842-23.656,52.842-52.84C492.154,29.605,468.496,5.948,439.313,5.948z M430.958,39.417l18.552,15l-18.552,17.159V39.417z
	 M426.22,79.045L397.987,51.03l19.298-19.611h8.935V79.045z M439.424,92.158l-9.711-12.678l32.714-21.998
	c0,0,0.549-0.394,0.549-1.239c0-0.908-1.004-1.583-1.004-1.583l-30.451-23.242h29.303l19.816,19.459L439.424,92.158z"/>
<g>
	<path fill="#FFFFFF" d="M554.407,52.635c-2.47,0-4.476,2.007-4.476,4.475c0,2.468,2.006,4.475,4.476,4.475
		c2.467,0,4.474-2.007,4.474-4.475C558.881,54.643,556.874,52.635,554.407,52.635z"/>
	<path fill="#FFFFFF" d="M570.067,52.635c-2.467,0-4.474,2.007-4.474,4.475c0,2.468,2.007,4.475,4.474,4.475
		c2.469,0,4.476-2.007,4.476-4.475C574.543,54.643,572.536,52.635,570.067,52.635z"/>
	<path fill="#FFFFFF" d="M566.455,5.948c-29.184,0-52.842,23.658-52.842,52.841c0,29.184,23.658,52.84,52.842,52.84
		c29.183,0,52.841-23.656,52.841-52.84C619.296,29.605,595.638,5.948,566.455,5.948z M570.067,87.315
		c-4.768,0-9.373-0.884-13.696-2.627c-7.612,4.394-18.138,5.908-18.591,5.972c-0.053,0.009-0.104,0.012-0.155,0.012
		c-0.42,0-0.812-0.236-1.001-0.619c-0.215-0.43-0.13-0.951,0.21-1.29c2.572-2.572,4.346-8.001,5.007-15.315
		c-3.493-4.876-5.334-10.516-5.334-16.337c0-16.656,15.056-30.206,33.561-30.206c18.507,0,33.563,13.55,33.563,30.206
		S588.574,87.315,570.067,87.315z"/>
	<path fill="#FFFFFF" d="M585.729,52.635c-2.467,0-4.474,2.007-4.474,4.475c0,2.468,2.007,4.475,4.474,4.475
		c2.469,0,4.476-2.007,4.476-4.475C590.205,54.643,588.198,52.635,585.729,52.635z"/>
</g>
<path fill="#42BCEA" d="M313.136,118.947c-29.184,0-52.842,23.658-52.842,52.842s23.658,52.84,52.842,52.84
	c29.183,0,52.841-23.656,52.841-52.84S342.318,118.947,313.136,118.947z M317.342,197.775l-4.206,4.207l-4.207-4.207
	c-15.626-13.824-25.845-23.139-25.845-34.558c0-9.315,7.212-16.528,16.527-16.528c5.109,0,10.219,2.403,13.524,6.311
	c3.305-3.907,8.414-6.311,13.523-6.311c9.314,0,16.527,7.213,16.527,16.528C343.187,174.637,332.97,183.951,317.342,197.775z"/>
<g>
	<path fill="#42BCEA" d="M185.315,154.369c-8.693,0.543-15.739,7.59-16.282,16.281c-0.662,10.545,8.031,19.221,18.558,18.559
		c8.676-0.561,15.722-7.607,16.282-16.283C204.535,162.383,195.842,153.707,185.315,154.369z M195.842,172.383
		c-0.306,4.703-4.108,8.49-8.778,8.777c-5.671,0.357-10.357-4.313-9.983-9.982c0.289-4.686,4.092-8.473,8.778-8.777
		C191.529,162.043,196.215,166.713,195.842,172.383z"/>
	<path fill="#42BCEA" d="M186.453,118.947c-29.184,0-52.841,23.658-52.841,52.842s23.658,52.84,52.841,52.84
		c29.183,0,52.841-23.656,52.841-52.84S215.636,118.947,186.453,118.947z M186.453,196.527c-15.858,0-30.239-8.676-40.85-22.785
		c-0.866-1.156-0.866-2.768,0-3.924c10.611-14.092,24.992-22.768,40.85-22.768s30.239,8.676,40.851,22.785
		c0.866,1.154,0.866,2.768,0,3.922C216.691,187.852,202.311,196.527,186.453,196.527z"/>
</g>
<path fill="#42BCEA" d="M439.313,118.947c-29.184,0-52.841,23.658-52.841,52.842s23.657,52.84,52.841,52.84
	s52.842-23.656,52.842-52.84S468.496,118.947,439.313,118.947z M430.958,152.417l18.552,15.001l-18.552,17.158V152.417z
	 M426.22,192.045l-28.232-28.016l19.298-19.61h8.935V192.045z M439.424,205.158l-9.711-12.678l32.714-21.998
	c0,0,0.549-0.393,0.549-1.238c0-0.908-1.004-1.583-1.004-1.583l-30.451-23.242h29.303l19.816,19.459L439.424,205.158z"/>
<g>
	<path fill="#42BCEA" d="M554.407,165.635c-2.47,0-4.476,2.008-4.476,4.475c0,2.469,2.006,4.476,4.476,4.476
		c2.467,0,4.474-2.007,4.474-4.476C558.881,167.643,556.874,165.635,554.407,165.635z"/>
	<path fill="#42BCEA" d="M570.067,165.635c-2.467,0-4.474,2.008-4.474,4.475c0,2.469,2.007,4.476,4.474,4.476
		c2.469,0,4.476-2.007,4.476-4.476C574.543,167.643,572.536,165.635,570.067,165.635z"/>
	<path fill="#42BCEA" d="M566.455,118.947c-29.184,0-52.842,23.658-52.842,52.841c0,29.184,23.658,52.84,52.842,52.84
		c29.183,0,52.841-23.656,52.841-52.84C619.296,142.605,595.638,118.947,566.455,118.947z M570.067,200.314
		c-4.768,0-9.373-0.883-13.696-2.627c-7.612,4.395-18.138,5.908-18.591,5.973c-0.053,0.008-0.104,0.012-0.155,0.012
		c-0.42,0-0.812-0.236-1.001-0.619c-0.215-0.43-0.13-0.951,0.21-1.291c2.572-2.572,4.346-8,5.007-15.314
		c-3.493-4.876-5.334-10.516-5.334-16.338c0-16.655,15.056-30.205,33.561-30.205c18.507,0,33.563,13.55,33.563,30.205
		C603.63,186.766,588.574,200.314,570.067,200.314z"/>
	<path fill="#42BCEA" d="M585.729,165.635c-2.467,0-4.474,2.008-4.474,4.475c0,2.469,2.007,4.476,4.474,4.476
		c2.469,0,4.476-2.007,4.476-4.476C590.205,167.643,588.198,165.635,585.729,165.635z"/>
</g>
</svg>
